<svg version="1.1" id="Layer_1" xmlns="http://www.w3.org/2000/svg" xmlns:xlink="http://www.w3.org/1999/xlink" x="0px" y="0px" width="78px" height="100.8px" viewBox="0 0 78 100.8" xml:space="preserve" style="width:40px;height:40px;margin-right:10px"><path style="fill:#FFFFFF;" d="M25.6,33.5l17,18.5L28.2,68.7l23.3,14.6l-17.1,17.4h-30L2.6,49.3C2.2,37.6,1.4,21.1,0,0h48.7                L25.6,33.5z M59.4,3.9h-9.7l-5,7.2h14.7c6.3,0,11.4,5.1,11.4,11.4V79c0,6.3-5.1,11.4-11.4,11.4H48.8l-7,7.2h17.6                C69.7,97.6,78,89.2,78,79V22.5C78,12.2,69.7,3.9,59.4,3.9z M32.3,29.1l-2.9,4.1l2.8,3h26.9v-7.2H32.3z M42.1,47l2.7,3l1.8,2l-1.7,2l-0.2,0.2h14.4V47H42.1z M35.4,65l-2.6,3l6.6,4.1h19.8V65H35.4z"/></svg>